<?xml version="1.0" encoding="UTF-8" standalone="no"?>
<!-- Created with Inkscape (http://www.inkscape.org/) -->

<svg
   width="35mm"
   height="35mm"
   viewBox="0 0 35 35"
   version="1.1"
   id="svg5"
   inkscape:version="1.1.2 (b8e25be833, 2022-02-05)"
   sodipodi:docname="logo-charles-vdd.svg"
   inkscape:export-filename="C:\Users\chvan\Dropbox\production-développement-création-analyse\Projets\Sites HTML\Charles-van-den-driessche\images\logo-charles-vdd.png"
   inkscape:export-xdpi="96"
   inkscape:export-ydpi="96"
   xmlns:inkscape="http://www.inkscape.org/namespaces/inkscape"
   xmlns:sodipodi="http://sodipodi.sourceforge.net/DTD/sodipodi-0.dtd"
   xmlns="http://www.w3.org/2000/svg"
   xmlns:svg="http://www.w3.org/2000/svg">
  <sodipodi:namedview
     id="namedview7"
     pagecolor="#505050"
     bordercolor="#ffffff"
     borderopacity="1"
     inkscape:pageshadow="0"
     inkscape:pageopacity="0"
     inkscape:pagecheckerboard="1"
     inkscape:document-units="mm"
     showgrid="false"
     inkscape:zoom="2.932688"
     inkscape:cx="-18.24265"
     inkscape:cy="60.354187"
     inkscape:window-width="1920"
     inkscape:window-height="1009"
     inkscape:window-x="-8"
     inkscape:window-y="-8"
     inkscape:window-maximized="1"
     inkscape:current-layer="g860" />
  <defs
     id="defs2">
    <clipPath
       clipPathUnits="userSpaceOnUse"
       id="clipPath838">
      <path
         d="M 0,0 H 1562.5 V 1593.75 H 0 Z"
         clip-rule="evenodd"
         id="path836" />
    </clipPath>
    <clipPath
       clipPathUnits="userSpaceOnUse"
       id="clipPath852">
      <path
         d="M 0,0 H 1562.5 V 1562.5 H 0 Z"
         clip-rule="evenodd"
         id="path850" />
    </clipPath>
    <clipPath
       clipPathUnits="userSpaceOnUse"
       id="clipPath864">
      <path
         d="m 241.84198,646.98248 h 331.25 v 268.75 h -331.25 z"
         clip-rule="evenodd"
         id="path862" />
    </clipPath>
    <clipPath
       clipPathUnits="userSpaceOnUse"
       id="clipPath872">
      <path
         d="M 0,0 H 260 V 260 H 0 Z"
         id="path870" />
    </clipPath>
    <clipPath
       clipPathUnits="userSpaceOnUse"
       id="clipPath888">
      <path
         d="M 0,0 H 260 V 261 H 0 Z"
         id="path886" />
    </clipPath>
    <clipPath
       clipPathUnits="userSpaceOnUse"
       id="clipPath904">
      <path
         d="M 0,0 H 1562.5 V 1562.5 H 0 Z"
         clip-rule="evenodd"
         id="path902" />
    </clipPath>
  </defs>
  <g
     inkscape:label="Calque 1"
     inkscape:groupmode="layer"
     id="layer1">
    <g
       id="g830"
       inkscape:label="Foncé Bleu et Sarcelle Moderne Dégradé Médecin Santé Logo"
       transform="matrix(0.08466666,0,0,0.08466666,107.79585,115.85568)">
      <g
         id="g858"
         transform="matrix(1.069874,0,0,1.069874,-1508.3303,-2034.8883)">
        <g
           id="g860"
           clip-path="url(#clipPath864)">
          <g
             id="g866"
             transform="translate(241,656)"
             style="mix-blend-mode:normal;fill:#00112b;fill-opacity:1">
            <g
               id="g868"
               style="fill:#00112b;fill-opacity:1" />
            <g
               id="g880"
               style="fill:#00112b;fill-opacity:1">
              <g
                 clip-path="url(#clipPath872)"
                 opacity="0.698"
                 id="g878"
                 style="fill:#00112b;fill-opacity:1">
                <g
                   transform="matrix(0.66237843,0,0,0.66571707,0.87236023,0.1027832)"
                   id="g876"
                   style="fill:#00112b;fill-opacity:1">
                  <path
                     d="m 249.62,390.02399 c -35.98801,0 -71.97699,-13.69901 -99.374,-41.09601 L 41.161999,239.845 C 14.618,213.30099 0,178.009 0,140.47099 0,102.93298 14.618,67.640991 41.161999,41.096992 c 54.795002,-54.794998 143.953011,-54.794998 198.749001,0 L 348.99399,150.17999 c 26.544,26.543 41.16199,61.83499 41.16199,99.374 0,37.53799 -14.61802,72.82998 -41.16199,99.37399 C 321.59601,376.32501 285.608,390.02399 249.62,390.02399 Z M 140.53599,62.161999 c -20.063,0 -40.12499,7.636997 -55.39799,22.91 C 70.341003,99.868996 62.191002,119.544 62.191002,140.47 c 0,20.926 8.149002,40.601 22.946998,55.398 l 109.08301,109.08299 c 30.546,30.547 80.24899,30.548 110.79599,0 14.798,-14.797 22.94601,-34.47199 22.94601,-55.398 0,-20.927 -8.14898,-40.60099 -22.94598,-55.39799 L 195.935,85.071999 c -15.274,-15.272995 -35.336,-22.91 -55.39901,-22.91 z"
                     style="fill:#00112b;fill-opacity:1;fill-rule:nonzero;stroke:none"
                     id="path874" />
                </g>
              </g>
            </g>
          </g>
          <g
             id="g882"
             transform="translate(314,655)">
            <g
               id="g884" />
            <g
               id="g896"
               style="fill:#198754;fill-opacity:1">
              <g
                 clip-path="url(#clipPath888)"
                 opacity="0.698"
                 id="g894"
                 style="fill:#198754;fill-opacity:1">
                <g
                   transform="matrix(0.66237843,0,0,0.66571707,-72.12764,1.1027832)"
                   id="g892"
                   style="fill:#198754;fill-opacity:1">
                  <path
                     d="m 250.381,390.02399 c -35.98799,0 -71.97701,-13.69901 -99.37401,-41.09601 -26.544,-26.54401 -41.162,-61.836 -41.162,-99.37399 0,-37.53901 14.61799,-72.831 41.162,-99.374 L 260.09,41.096001 c 54.794,-54.794998 143.95401,-54.794998 198.74899,0 C 485.38199,67.639999 500,102.932 500,140.47099 c 0,37.53899 -14.61801,72.83 -41.16199,99.37401 L 349.755,348.92801 c -27.397,27.397 -63.38601,41.09598 -99.374,41.09598 z M 359.46399,62.161999 c -20.06201,0 -40.125,7.636997 -55.39801,22.91 L 194.983,194.15601 c -14.797,14.79699 -22.947,34.471 -22.947,55.39799 0,20.92601 8.149,40.601 22.947,55.398 30.54601,30.54699 80.24899,30.548 110.79599,0 L 414.862,195.86899 c 14.798,-14.797 22.94598,-34.47101 22.94598,-55.398 0,-20.92698 -8.14898,-40.600995 -22.94598,-55.397992 C 399.58899,69.799004 379.526,62.161999 359.46399,62.161999 Z"
                     style="fill:#198754;fill-opacity:1;fill-rule:nonzero;stroke:none"
                     id="path890" />
                </g>
              </g>
            </g>
          </g>
        </g>
      </g>
      <g
         id="g898">
        <g
           id="g900"
           clip-path="url(#clipPath904)">
          <g
             id="g906"
             transform="matrix(3.125,0,0,3.125,600.86304,648.35217)">
            <text
               transform="translate(0,27)"
               style="font-variant:normal;font-weight:600;font-size:34.66px;font-family:Poppins;-inkscape-font-specification:Poppins-SemiBold;writing-mode:lr-tb;fill:#11325b;fill-opacity:1;fill-rule:nonzero;stroke:none"
               id="text910"><tspan
                 sodipodi:role="line"
                 id="tspan908"
                 x="0"
                 y="0" /></text>
            <text
               transform="translate(0,61)"
               style="font-variant:normal;font-weight:600;font-size:34.66px;font-family:Poppins;-inkscape-font-specification:Poppins-SemiBold;writing-mode:lr-tb;fill:#11325b;fill-opacity:1;fill-rule:nonzero;stroke:none"
               id="text914"><tspan
                 sodipodi:role="line"
                 id="tspan912"
                 x="0"
                 y="0" /></text>
          </g>
          <g
             id="g916"
             transform="matrix(3.1249974,0,0,3.1249974,600.86304,871.89026)">
            <text
               transform="translate(0,13)"
               style="font-variant:normal;font-weight:600;font-size:12.33px;font-family:Poppins;-inkscape-font-specification:Poppins-SemiBold;writing-mode:lr-tb;fill:#11325b;fill-opacity:1;fill-rule:nonzero;stroke:none"
               id="text920"><tspan
                 sodipodi:role="line"
                 id="tspan918"
                 x="0"
                 y="0" /></text>
          </g>
        </g>
      </g>
    </g>
  </g>
</svg>
